<svg width="150" height="40" viewBox="0 0 150 40" fill="none" xmlns="http://www.w3.org/2000/svg">
<g clip-path="url(#clip0_1_4)">
<path d="M22.0725 8.34371L19.8929 6.19445C19.8076 6.10977 19.7068 6.04313 19.5963 5.99835C19.4858 5.95358 19.3677 5.93154 19.2488 5.9335C19.13 5.93546 19.0126 5.96138 18.9036 6.00978C18.7945 6.05818 18.6959 6.12811 18.6133 6.21556L5.75034 19.8459C5.66781 19.9334 5.60299 20.0368 5.55956 20.15C5.51614 20.2632 5.49497 20.384 5.49727 20.5056C5.49957 20.6272 5.52529 20.7471 5.57297 20.8585C5.62064 20.97 5.68933 21.0706 5.7751 21.1549L18.9022 34.118C18.9878 34.2024 19.0888 34.2687 19.1995 34.3132C19.3102 34.3576 19.4283 34.3792 19.5472 34.3769C19.6661 34.3745 19.7833 34.3482 19.8922 34.2994C20.0011 34.2507 20.0996 34.1804 20.1819 34.0927L33.0242 20.4666C33.1087 20.3813 33.1758 20.2798 33.2216 20.1678C33.2674 20.0558 33.291 19.9356 33.291 19.8142C33.291 19.6928 33.2674 19.5726 33.2216 19.4606C33.1758 19.3486 33.1087 19.2471 33.0242 19.1618L28.0706 14.2468L31.373 10.7463L37.6146 16.9323C38.3528 17.6621 38.7775 18.6618 38.7953 19.7118C38.8131 20.7617 38.4225 21.7759 37.7095 22.5314L22.3574 38.7924C21.644 39.5475 20.6666 39.9819 19.6402 40.0001C18.6137 40.0183 17.6222 39.6188 16.8836 38.8895L1.19712 23.3801C0.456406 22.6519 0.028599 21.6527 0.00770007 20.6021C-0.0131989 19.5514 0.37452 18.5352 1.08567 17.7768L16.4378 1.52011C16.7908 1.14571 17.2124 0.846174 17.6787 0.638635C18.1449 0.431095 18.6466 0.319626 19.155 0.310606C19.6634 0.301586 20.1685 0.395191 20.6415 0.586066C21.1145 0.776941 21.5461 1.06134 21.9116 1.42299L25.375 4.84324L22.0725 8.34371Z" fill="#4C9FE3"/>
<path d="M31.4638 31.669L33.6393 33.8182C33.7232 33.9043 33.823 33.9725 33.9328 34.0191C34.0425 34.0657 34.1602 34.0897 34.2791 34.0897C34.398 34.0897 34.5157 34.0657 34.6255 34.0191C34.7352 33.9725 34.835 33.9043 34.9189 33.8182L47.7819 20.1921C47.8644 20.1046 47.9292 20.0012 47.9726 19.888C48.0161 19.7748 48.0372 19.654 48.0349 19.5324C48.0326 19.4108 48.0069 19.2909 47.9592 19.1795C47.9116 19.068 47.8429 18.9674 47.7571 18.8831L34.6341 5.88198C34.5485 5.79757 34.4475 5.73126 34.3368 5.68684C34.2262 5.64242 34.108 5.62077 33.9891 5.62312C33.8703 5.62547 33.753 5.65179 33.6441 5.70055C33.5352 5.74932 33.4368 5.81958 33.3544 5.90731L20.4915 19.5292C20.4074 19.6151 20.3406 19.7171 20.2951 19.8294C20.2496 19.9417 20.2261 20.0621 20.2261 20.1837C20.2261 20.3053 20.2496 20.4256 20.2951 20.538C20.3406 20.6503 20.4074 20.7523 20.4915 20.8382L25.4905 25.7574L22.1881 29.2579L15.9218 23.0677C15.5558 22.7066 15.2629 22.2753 15.06 21.7984C14.8571 21.3215 14.7482 20.8083 14.7394 20.2883C14.7305 19.7682 14.822 19.2515 15.0086 18.7677C15.1952 18.2838 15.4733 17.8424 15.8268 17.4686L31.1748 1.20764C31.8882 0.452522 32.8656 0.0181006 33.8921 -0.000111186C34.9185 -0.018323 35.91 0.381165 36.6486 1.11052L52.3351 16.6199C52.7012 16.9813 52.9941 17.4129 53.1971 17.8902C53.4001 18.3675 53.5091 18.881 53.5179 19.4014C53.5267 19.9218 53.4352 20.4388 53.2485 20.923C53.0618 21.4072 52.7837 21.849 52.43 22.2232L37.0985 38.4799C36.7452 38.8544 36.3232 39.154 35.8566 39.3616C35.39 39.5692 34.888 39.6807 34.3793 39.6898C33.8705 39.6988 33.365 39.6051 32.8917 39.4142C32.4184 39.2233 31.9865 38.9388 31.6207 38.577L28.1572 35.1568L31.4638 31.669Z" fill="#316A99"/>
<path d="M76.7482 18.0471C76.7621 19.2613 76.5477 20.4668 76.1166 21.5982C75.7213 22.6439 75.1148 23.5924 74.3366 24.3819C73.5584 25.1714 72.6261 25.784 71.6006 26.1797C70.4658 26.6203 69.26 26.8381 68.0463 26.8215H61.4828V9.25578H68.0463C69.2607 9.23986 70.4669 9.46054 71.6006 9.90605C72.6268 10.3121 73.561 10.9286 74.3457 11.7175C75.1156 12.51 75.7183 13.4556 76.1166 14.4959C76.547 15.6275 76.7614 16.833 76.7482 18.0471ZM73.4788 18.0471C73.4904 17.1661 73.3621 16.2891 73.099 15.4502C72.8699 14.7353 72.5004 14.0758 72.0134 13.5121C71.5425 12.9788 70.9596 12.5615 70.3085 12.2918C69.589 12 68.8202 11.8565 68.0463 11.8695H64.7026V24.2373H68.0463C68.8204 24.253 69.5897 24.1094 70.3085 23.8151C70.9605 23.5469 71.5437 23.1294 72.0134 22.5947C72.5014 22.0285 72.8709 21.366 73.099 20.6482C73.3632 19.8081 73.4915 18.9295 73.4788 18.0471ZM84.1291 14.1708C84.853 14.1613 85.5723 14.2887 86.2509 14.5466C86.8792 14.7848 87.4495 15.1593 87.9228 15.6445C88.4035 16.1534 88.7759 16.7587 89.0167 17.4221C89.2957 18.1908 89.4356 19.0049 89.4295 19.8248C89.4303 20.0124 89.4206 20.1999 89.4006 20.3864C89.388 20.5107 89.3515 20.6312 89.2933 20.7411C89.244 20.8232 89.1702 20.8868 89.0828 20.9226C88.976 20.9634 88.8623 20.9821 88.7484 20.9775H81.1941C81.2808 22.2443 81.6069 23.1986 82.2013 23.7982C82.5095 24.1033 82.8753 24.3408 83.2763 24.4962C83.6774 24.6515 84.1052 24.7215 84.5337 24.7018C84.9528 24.7107 85.3707 24.6523 85.7721 24.5287C86.0879 24.4315 86.3946 24.3057 86.6885 24.1529C86.9444 24.0135 87.1715 23.8911 87.3655 23.777C87.5347 23.6702 87.7282 23.6105 87.9269 23.6039C88.0318 23.6014 88.1356 23.6261 88.2286 23.6755C88.3217 23.725 88.4011 23.7977 88.4594 23.8868L89.3181 24.9805C89.0031 25.3597 88.6343 25.6884 88.2241 25.9559C87.828 26.2181 87.4025 26.4307 86.9568 26.5893C86.5217 26.7473 86.0723 26.8605 85.6152 26.9271C85.1761 26.9897 84.7334 27.0222 84.2901 27.0242C83.4816 27.0343 82.6782 26.8911 81.9206 26.6019C81.2057 26.3248 80.5579 25.8927 80.0217 25.3352C79.4574 24.7308 79.0241 24.0113 78.7503 23.2239C78.424 22.2998 78.2659 21.3223 78.2838 20.3399C78.2813 19.5204 78.4211 18.7068 78.6966 17.9373C78.9513 17.2114 79.3457 16.5452 79.8566 15.978C80.3763 15.4134 81.0045 14.9648 81.7018 14.6606C82.4692 14.3275 83.2956 14.1607 84.1291 14.1708ZM84.1869 16.3201C83.8208 16.2988 83.4542 16.3536 83.1094 16.4814C82.7645 16.6091 82.4486 16.807 82.1807 17.0632C81.6565 17.646 81.3307 18.3867 81.2519 19.1745H86.7669C86.7698 18.8014 86.7183 18.43 86.6142 18.0724C86.5179 17.7412 86.3563 17.4337 86.1395 17.1688C85.913 16.9025 85.6308 16.6918 85.3139 16.5523C84.958 16.396 84.5742 16.3169 84.1869 16.3201ZM102.375 14.3566L97.5163 26.8384H94.8537L89.9909 14.3566H92.4265C92.6183 14.3489 92.8077 14.4036 92.9672 14.5128C93.1114 14.6147 93.2176 14.7636 93.2686 14.9351L95.6257 21.5982C95.7578 21.9867 95.8734 22.3709 95.9642 22.7425C96.055 23.1141 96.1375 23.4899 96.2077 23.8615C96.2779 23.4899 96.3605 23.1141 96.4513 22.7425C96.5461 22.3543 96.6632 21.9722 96.8022 21.5982L99.2129 14.9351C99.2661 14.7658 99.3701 14.6181 99.5101 14.5128C99.6601 14.4061 99.8395 14.3514 100.022 14.3566H102.375ZM110.767 26.8299H104.257V9.25578H110.189C111.162 9.23676 112.134 9.34747 113.079 9.58513C113.787 9.76184 114.453 10.0805 115.04 10.5225C115.534 10.9032 115.921 11.4099 116.163 11.992C116.41 12.6092 116.532 13.2715 116.522 13.9386C116.523 14.34 116.461 14.7391 116.34 15.1209C116.22 15.5048 116.034 15.8638 115.791 16.1807C115.521 16.5282 115.199 16.8302 114.837 17.0759C114.412 17.3631 113.951 17.5917 113.467 17.7557C115.828 18.3018 117.009 19.6066 117.009 21.67C117.016 22.3818 116.876 23.0872 116.596 23.739C116.32 24.372 115.904 24.9312 115.382 25.3732C114.804 25.8603 114.138 26.2261 113.422 26.4499C112.56 26.7232 111.661 26.8543 110.759 26.8384L110.767 26.8299ZM110.709 19.1238H107.452V24.288H110.697C111.204 24.3006 111.709 24.2264 112.191 24.0684C112.549 23.9472 112.877 23.7484 113.153 23.4857C113.391 23.2506 113.571 22.9612 113.678 22.6412C113.786 22.3077 113.841 21.9582 113.839 21.6067C113.842 21.2563 113.782 20.9083 113.661 20.5806C113.545 20.2735 113.355 20.0018 113.108 19.791C112.82 19.5608 112.488 19.394 112.134 19.3012C111.664 19.1788 111.181 19.122 110.697 19.1323L110.709 19.1238ZM107.473 11.7766V16.8901H110.028C110.895 16.9492 111.759 16.7371 112.505 16.2821C112.79 16.0566 113.016 15.7612 113.16 15.4232C113.304 15.0852 113.363 14.7155 113.331 14.3481C113.331 13.4319 113.075 12.7816 112.571 12.3889C112.068 11.9962 111.271 11.8062 110.193 11.8062H107.452L107.473 11.7766ZM119.791 8.76174H122.726V26.8384H119.791V8.76174ZM131.23 14.1708C132.076 14.1588 132.916 14.3107 133.707 14.6184C134.419 14.898 135.065 15.3299 135.601 15.8851C136.14 16.4626 136.552 17.1506 136.811 17.9035C137.102 18.758 137.242 19.6589 137.224 20.5637C137.244 21.4741 137.104 22.3808 136.811 23.2408C136.548 23.9955 136.137 24.6869 135.601 25.2718C135.066 25.8284 134.42 26.2605 133.707 26.5386C132.916 26.8477 132.076 27.001 131.23 26.9904C130.384 27.0001 129.544 26.8468 128.753 26.5386C128.036 26.2605 127.386 25.8286 126.846 25.2718C126.298 24.6914 125.876 23.9993 125.608 23.2408C125.304 22.3829 125.156 21.4758 125.17 20.5637C125.157 19.6572 125.305 18.7558 125.608 17.9035C125.862 17.1537 126.275 16.4699 126.815 15.9002C127.356 15.3306 128.011 14.8887 128.737 14.6057C129.533 14.3011 130.379 14.1536 131.23 14.1708ZM131.23 24.7271C131.661 24.7599 132.093 24.6816 132.487 24.4994C132.881 24.3172 133.223 24.0369 133.484 23.6842C133.971 22.9888 134.214 21.967 134.214 20.6186C134.214 19.273 133.971 18.2469 133.484 17.5404C133.227 17.1813 132.886 16.8946 132.492 16.7071C132.098 16.5195 131.664 16.4372 131.23 16.4679C130.793 16.4343 130.354 16.5143 129.955 16.7003C129.556 16.8863 129.209 17.1723 128.947 17.5319C128.457 18.2413 128.211 19.2646 128.208 20.6017C128.208 21.9417 128.454 22.9607 128.947 23.6588C129.211 24.0152 129.559 24.2982 129.958 24.4818C130.356 24.6655 130.794 24.744 131.23 24.7102V24.7271ZM143.758 14.1708C144.254 14.1683 144.748 14.2222 145.232 14.3313C145.67 14.4257 146.094 14.576 146.495 14.7788H150V15.8978C150.006 16.0515 149.956 16.202 149.86 16.3201C149.724 16.4437 149.553 16.5205 149.373 16.5396L148.279 16.7465C148.449 17.196 148.533 17.6748 148.526 18.1569C148.537 18.7408 148.414 19.3193 148.167 19.8459C147.927 20.3365 147.586 20.7685 147.168 21.1126C146.717 21.4736 146.205 21.747 145.657 21.9191C145.043 22.1146 144.402 22.2115 143.758 22.2063C143.308 22.2128 142.859 22.1717 142.417 22.0838C142.037 22.3203 141.847 22.5821 141.847 22.8777C141.843 22.9934 141.873 23.1078 141.933 23.2057C141.994 23.3037 142.082 23.3807 142.186 23.4266C142.467 23.5608 142.768 23.6464 143.077 23.6799C143.445 23.7264 143.862 23.7559 144.316 23.7686C144.77 23.7813 145.261 23.8066 145.752 23.8488C146.235 23.8884 146.715 23.9589 147.189 24.06C147.624 24.153 148.042 24.3154 148.427 24.5413C148.793 24.7582 149.1 25.0661 149.319 25.4365C149.558 25.8803 149.674 26.3827 149.653 26.8891C149.646 27.4503 149.504 28.0012 149.24 28.4936C148.958 29.0344 148.565 29.5067 148.089 29.8786C147.533 30.3127 146.907 30.6443 146.239 30.8582C145.432 31.1183 144.589 31.2438 143.742 31.2298C142.929 31.244 142.118 31.1532 141.327 30.9596C140.728 30.8106 140.157 30.564 139.635 30.2291C139.224 29.9629 138.88 29.6012 138.631 29.1734C138.415 28.7987 138.299 28.3717 138.297 27.9362C138.28 27.3944 138.468 26.8667 138.821 26.4626C139.221 26.03 139.718 25.7051 140.27 25.5167C139.978 25.3511 139.729 25.1166 139.544 24.8327C139.349 24.4992 139.254 24.1145 139.271 23.7264C139.274 23.5297 139.306 23.3346 139.366 23.1479C139.436 22.9391 139.535 22.7415 139.659 22.561C139.799 22.3543 139.964 22.1669 140.151 22.0036C140.365 21.8196 140.6 21.6635 140.852 21.5391C140.259 21.2226 139.758 20.7523 139.399 20.1752C139.036 19.578 138.851 18.8854 138.867 18.1822C138.857 17.5979 138.982 17.0194 139.23 16.4932C139.473 16.0009 139.818 15.5686 140.241 15.2264C140.699 14.8613 141.22 14.5877 141.777 14.4199C142.42 14.2243 143.088 14.1318 143.758 14.1455V14.1708ZM146.982 27.4253C146.989 27.2059 146.912 26.9923 146.768 26.8299C146.606 26.6632 146.406 26.5399 146.186 26.471C145.905 26.3789 145.616 26.3152 145.323 26.281C144.993 26.243 144.646 26.2092 144.279 26.1881L143.135 26.129C142.743 26.129 142.363 26.0741 142 26.0277C141.693 26.1915 141.421 26.4153 141.199 26.6864C141 26.935 140.891 27.2472 140.894 27.5689C140.893 27.7854 140.948 27.9982 141.055 28.1854C141.179 28.3934 141.356 28.5639 141.566 28.6794C141.851 28.834 142.157 28.9423 142.475 29.0003C142.925 29.083 143.383 29.1211 143.841 29.1143C144.316 29.1212 144.79 29.0788 145.257 28.9876C145.599 28.9224 145.928 28.8043 146.235 28.6372C146.468 28.5124 146.664 28.3275 146.805 28.1009C146.925 27.8881 146.987 27.6458 146.982 27.4V27.4253ZM143.758 20.323C144.083 20.3298 144.405 20.2784 144.712 20.171C144.962 20.0794 145.192 19.9356 145.385 19.7488C145.566 19.5663 145.707 19.346 145.798 19.1027C145.889 18.8312 145.934 18.5454 145.93 18.2582C145.943 17.9894 145.903 17.7206 145.81 17.4686C145.718 17.2165 145.576 16.9865 145.393 16.793C144.941 16.4013 144.357 16.2071 143.767 16.2525C143.178 16.2078 142.595 16.4019 142.144 16.793C141.959 16.9846 141.814 17.2133 141.719 17.4646C141.624 17.716 141.58 17.9847 141.591 18.254C141.588 18.5322 141.636 18.8086 141.732 19.0689C141.818 19.3155 141.959 19.5381 142.144 19.7192C142.338 19.9099 142.571 20.0541 142.825 20.1415C143.125 20.2483 143.441 20.3012 143.758 20.2977V20.323Z" fill="#2D3849"/>
</g>
<defs>
<clipPath id="clip0_1_4">
<rect width="150" height="40" fill="white"/>
</clipPath>
</defs>
</svg>
